<?xml version="1.0" encoding="utf-8"?>
<!-- Generator: Adobe Illustrator 26.0.0, SVG Export Plug-In . SVG Version: 6.00 Build 0)  -->
<svg version="1.1" id="Layer_1" xmlns="http://www.w3.org/2000/svg" xmlns:xlink="http://www.w3.org/1999/xlink" x="0px" y="0px"
	 viewBox="0 0 288 300" style="enable-background:new 0 0 288 300;" xml:space="preserve">
<style type="text/css">
	.st0{fill:#FAFCFB;}
	.st1{fill:#1F833B;}
	.st2{fill:#FAFEFB;}
	.st3{fill:#FAFDFB;}
	.st4{fill:#FAFEFC;}
	.st5{fill:#F9FDFB;}
	.st6{fill:#F9FDFA;}
	.st7{fill:#FBFDFC;}
	.st8{fill:#F7FCF8;}
	.st9{fill:#DAF5E1;}
	.st10{fill:#D6D6D4;}
	.st11{fill:#FFFFFF;}
	.st12{fill:#191918;}
</style>
<g>
	<g>
		<g>
			<circle class="st0" cx="145.4" cy="149.7" r="133.2"/>
		</g>
		<g>
			<path d="M145.4,18.6c72.4,0,131.2,58.7,131.2,131.2s-58.7,131.2-131.2,131.2S14.3,222.1,14.3,149.7S73,18.6,145.4,18.6
				 M145.4,14.4c-36.1,0-70.1,14.1-95.7,39.6c-25.6,25.6-39.6,59.5-39.6,95.7s14.1,70.1,39.6,95.7c25.6,25.6,59.5,39.6,95.7,39.6
				s70.1-14.1,95.7-39.6c25.6-25.6,39.6-59.5,39.6-95.7S266.6,79.6,241.1,54C215.5,28.5,181.5,14.4,145.4,14.4L145.4,14.4z"/>
		</g>
	</g>
	<g>
		<path class="st1" d="M145.4,275.7c-69.5,0-126-56.5-126-126c0-69.5,56.5-126,126-126c69.5,0,126,56.5,126,126
			C271.4,219.2,214.9,275.7,145.4,275.7z M145.4,63c-47.8,0-86.7,38.9-86.7,86.7s38.9,86.7,86.7,86.7c47.8,0,86.7-38.9,86.7-86.7
			S193.2,63,145.4,63z"/>
	</g>
	<g>
		<path d="M145.4,231.5c-45.1,0-81.7-36.7-81.7-81.7S100.3,68,145.4,68c45.1,0,81.7,36.7,81.7,81.7S190.5,231.5,145.4,231.5z
			 M145.4,69.5c-44.2,0-80.2,36-80.2,80.2s36,80.2,80.2,80.2c44.2,0,80.2-36,80.2-80.2S189.6,69.5,145.4,69.5z"/>
	</g>
	<g>
		<path class="st2" d="M52.3,123c-0.3-0.1-0.5-0.2-0.9-0.3c-1.6-0.4-3-0.7-4.5-1.1c0,0.1,0,0.1-0.1,0.2c0.9,0.4,1.7,0.7,2.6,1.1
			c2.1,0.9,4.2,1.8,6.4,2.8c-0.4,1.6-0.8,3.1-1.1,4.7c-3.3-0.2-6.5-0.5-9.8-0.7c0,0,0,0.1,0,0.1c3.1,0.8,6.2,1.5,9.4,2.3
			c-0.4,1.7-0.8,3.3-1.2,5c-8.4-2.1-16.7-4.1-25-6.2c0.6-2.4,1.2-4.8,1.8-7.2c4.4,0.4,8.7,0.8,13.1,1.1c0,0,0-0.1,0-0.1
			c-0.7-0.3-1.4-0.6-2.1-0.9c-3.2-1.3-6.3-2.6-9.5-4c-0.3-0.1-0.6-0.2-0.5-0.6c0.6-2.2,1.1-4.4,1.7-6.6c0,0,0.1-0.1,0.1-0.2
			c8.3,2,16.6,4.1,24.9,6.1c-0.4,1.8-0.9,3.5-1.3,5.3c-0.7-0.2-1.3-0.3-2-0.5c-0.7-0.2-1.2-0.3-1.8-0.4
			C52.4,123.1,52.4,123.1,52.3,123C52.3,123,52.3,123,52.3,123z"/>
		<path class="st3" d="M257.2,191.2c-0.1,0.8-0.6,0.9-1.3,0.9c-2.8-0.3-5.5-0.5-8.3-0.8c-0.2,0-0.5,0-0.8,0.1c3,1.1,5.9,2.3,9,3.4
			c-0.6,1.6-1.2,3.2-1.9,4.9c-8-3.1-16-6.1-24.1-9.2c0.4-1.1,0.8-2.2,1.2-3.3c0.3-0.7,0.4-1.6,0.9-1.9c0.5-0.3,1.4,0,2.1,0.1
			c3.5,0.3,7,0.6,10.5,0.9c0.3,0,0.5,0,0.8-0.1c-4-1.5-8-3.1-12.1-4.6c0.6-1.7,1.2-3.3,1.9-4.9c8,3.1,16,6.1,24.1,9.2
			C258.5,187.7,257.9,189.4,257.2,191.2z"/>
		<path class="st4" d="M148.1,242c0.9,0.1,1.8,0.2,2.6,0.4c2.1,0.6,3.4,2.1,3.7,4.3c0.2,1.4,0.2,2.8,0.1,4.2
			c-0.1,1.4-0.6,2.7-1.8,3.7c1.7,1.3,2,3.1,2,5.1c0,1.3,0.1,2.7,0.1,4c0,1.4,0.1,2.8,1,4.2c-0.8,0-1.3,0-1.9,0c-1.2,0-2.4,0-3.5,0.1
			c-0.6,0-0.9-0.2-1-0.7c-0.1-0.9-0.3-1.9-0.4-2.8c-0.1-1.8,0-3.6-0.1-5.4c-0.1-1.3-1.1-2-2.4-1.6c-0.1,0-0.3,0.3-0.3,0.5
			c0,3.1,0.1,6.1,0.2,9.2c0,0.3,0,0.5,0,0.8c-2,0-3.8,0-5.8,0c-0.1-8.6-0.3-17.2-0.4-26C142.9,242,145.5,242,148.1,242 M146.2,251.8
			c0,0.2,0,0.5,0,0.8c0.6,0,1,0,1.5-0.1c0.6-0.1,1-0.5,1-1.1c0-1.1,0-2.1,0-3.2c0-0.6-0.3-1.1-1-1.1c-0.5,0-1.1,0-1.6,0
			C146.2,248.6,146.2,250.1,146.2,251.8z"/>
		<path class="st5" d="M99.5,69.4c-1.6,0.9-3.1,1.7-4.7,2.6c-4.1-7.5-8.2-15-12.4-22.6c0.7-0.4,1.4-0.8,2.1-1.1
			c1.7-0.9,3.4-1.9,5.2-2.8c1.6-0.8,3.3-1.1,5-0.4c1,0.4,1.8,1.1,2.4,1.9c0.7,1.1,1.3,2.2,1.9,3.4c0.6,1.3,0.7,2.7,0.2,4.2
			c2.3,0.4,3.4,2.1,4.4,3.9c0.7,1.2,1.3,2.5,2,3.7c0.6,0.9,1.4,1.8,2.1,2.7c-0.1,0.1-0.4,0.2-0.6,0.4c-1.3,0.7-2.6,1.4-3.9,2.1
			c-0.4,0.2-0.7,0.2-0.9-0.1c-0.8-1.1-1.6-2.3-2.4-3.5c-0.6-1-1.1-2.1-1.7-3.1c-0.9-1.6-1.8-1.8-3.3-0.6c1,1.9,2,3.7,3.1,5.6
			c0.5,1,1.1,2,1.6,3C99.7,68.9,99.6,69.1,99.5,69.4 M91.3,53.7c0.4,0.7,0.7,1.3,1.1,2c0.3-0.2,0.6-0.3,0.9-0.5
			c0.9-0.6,1.1-1.1,0.6-2.1c-0.2-0.5-0.5-1-0.8-1.5c-1-1.8-1.6-1.9-3.2-0.7c0,0,0,0-0.1,0.1C90.3,51.9,90.8,52.7,91.3,53.7z"/>
		<path class="st3" d="M238.5,143.4c-0.1-0.9-0.2-1.8-0.3-2.7c1.3-0.9,2.8-1,4.2-1.2c1.3-0.2,2.6-0.3,3.9-0.5c1.9-0.2,2.4-1,1.8-2.9
			c-3.4,0.4-6.8,0.8-10.3,1.3c-0.2-1.9-0.5-3.7-0.7-5.7c8.5-1.1,17-2.1,25.6-3.2c0.1,1,0.3,2,0.4,3c0.2,1.8,0.5,3.5,0.6,5.3
			c0.2,3-0.9,4.9-3.3,5.9c-0.7,0.3-1.4,0.4-2.2,0.5c-0.8,0.1-1.6,0.2-2.4,0.3c-1.5,0.1-2.9-0.3-4.1-1.3c-1.3,2-3.4,2.4-5.5,2.6
			c-1.5,0.2-3,0.3-4.4,0.6c-1,0.2-1.9,0.6-2.9,1C238.8,145.5,238.7,144.5,238.5,143.4 M253.4,137.2c0.4,0.2,0.7,0.6,1.1,0.6
			c0.7,0.1,1.4-0.1,2.2-0.2c2-0.2,2.2-0.6,1.8-2.7c0,0-0.1-0.1-0.1-0.2c-1.7,0.2-3.5,0.4-5.3,0.7
			C253.1,136.1,253.3,136.6,253.4,137.2z"/>
		<path class="st3" d="M258.8,170.6c-1.3,0-2.6,0-3.9-0.1c-3.8-0.4-7.5-0.9-11.3-1.3c-4-0.5-6.2-3-6.1-6.9c0-1.6,0.4-3.2,1.3-4.6
			c1.3-2.1,3.3-2.9,5.8-2.7c2.3,0.2,4.5,0.5,6.8,0.7c2.3,0.3,4.6,0.5,6.9,0.8c3.6,0.5,5.7,2.8,5.7,6.4c0,2.4-0.4,4.6-2.3,6.4
			C260.9,170,259.9,170.4,258.8,170.6 M250.5,164.2c1,0.1,2.1,0.3,3.1,0.4c1.4,0.2,2.7,0.3,4.1,0.4c0.8,0.1,1.2-0.3,1.4-1
			c0.3-1.2-0.2-1.8-1.6-1.9c-3-0.3-6-0.7-9-1.1c-1.5-0.2-2.9-0.4-4.4-0.5c-0.4,0-0.9,0.2-1.1,0.5c-0.7,1-0.2,2.1,1,2.4
			c0.3,0,0.5,0.1,0.8,0.1C246.5,163.7,248.5,164,250.5,164.2z"/>
		<path class="st2" d="M26.8,153.8c0-1.3,0-2.6,0-3.9c8.4-1.7,16.9-3.5,25.6-5.3c0,1.9,0,3.8,0,5.8c-1.5,0.3-3,0.6-4.5,0.9
			c0,1.2,0,2.4,0,3.6c1.6,0.2,3.2,0.4,4.8,0.7c0,1.8,0,3.6,0,5.4c-8.6-1.3-17.2-2.7-25.9-4C26.8,155.8,26.8,154.8,26.8,153.8
			 M39.4,152.7c-0.9,0.2-1.7,0.3-2.6,0.5c0,0,0,0.1,0,0.1c2,0.3,4.1,0.5,6.1,0.8c0-0.7,0-1.4,0-2.1
			C41.8,152.3,40.7,152.5,39.4,152.7z"/>
		<path class="st6" d="M41.1,207.4c-0.8-1.2-1.5-2.5-1.7-3.9c-0.4-2.5,0.6-4.7,3-6.2c0.7-0.4,1.5-0.8,2.3-1.3
			c0.4,0.8,0.9,1.6,1.3,2.4c0.4,0.8,0.8,1.6,1.3,2.4c-0.7,0.4-1.4,0.7-2,1.1c-0.9,0.6-1,1.3-0.3,2.2c0.3,0.4,0.7,0.5,1.3,0.4
			c1-0.4,1.8-1,2.2-2.1c0.4-1.2,0.7-2.4,1-3.7c0.4-1.9,0.8-3.8,2-5.4c1.5-2,3.5-3.2,5.9-3.5c2.2-0.3,3.9,0.5,5.3,2.1
			c1,1.2,1.7,2.6,2.1,4.1c0.7,2.7-0.3,5.1-2.8,6.7c-0.8,0.5-1.7,1-2.7,1.5c-0.8-1.6-1.6-3.1-2.4-4.6c-0.1-0.1,0.1-0.4,0.3-0.5
			c0.6-0.3,1.2-0.6,1.7-0.9c0.9-0.5,1.1-1.1,0.7-2c-0.5-0.9-1-1.1-2-0.6c-1.3,0.6-2,1.6-2.3,2.9c-0.4,1.5-0.7,3.1-1.1,4.7
			c-0.5,1.9-1.2,3.7-2.8,5c-2.2,1.8-4.7,2.8-7.4,1.5C42.8,209.2,42,208.2,41.1,207.4z"/>
		<path class="st5" d="M177.9,54.3c1.2-5.9,2.4-11.7,3.7-17.7c1.8,0.7,3.4,1.3,5.1,2c0.1,0.1,0.3,0.5,0.2,0.7
			c-0.8,3.6-1.6,7.2-2.5,10.9c-0.2,0.8-0.4,1.6-0.5,2.5c0.1,0,0.1,0,0.2,0.1c2.3-4.1,4.7-8.2,7-12.4c1.7,0.7,3.3,1.3,5,2
			c-4.5,7.5-8.9,15-13.4,22.5c-2.1-0.8-4.1-1.6-6-2.4c-0.2-0.1-0.3-0.4-0.3-0.6C176.8,59.3,177.4,56.9,177.9,54.3 M183.8,52.9
			C183.8,52.9,183.8,52.9,183.8,52.9C183.8,52.9,183.8,52.9,183.8,52.9C183.8,52.9,183.8,52.9,183.8,52.9z"/>
		<path class="st3" d="M148.8,38.2c-0.8,5.4-1.5,10.8-2.2,16.2c-0.1,0.7-0.2,1.4-0.3,2.2c0,0.4-0.2,0.5-0.6,0.6
			c-1.9,0-3.8,0.1-5.7,0.2c-0.5,0-0.6-0.1-0.7-0.6c-0.8-4.1-1.6-8.3-2.5-12.4c-0.8-4-1.6-7.9-2.4-11.9c0-0.2-0.1-0.5-0.1-0.8
			c0.7,0,1.3,0,1.9,0c1.1,0,2.2,0,3.2-0.1c0.5,0,0.7,0.1,0.8,0.6c0.8,4.5,1.6,9,2.6,13.5c0.6-4.7,1.1-9.4,1.7-14.2
			c1.8,0,3.5,0,5.4,0C149.4,33.6,149.1,35.9,148.8,38.2z"/>
		<path class="st6" d="M117.3,45c1.7-0.5,3.3-0.9,5-1.3c0.4,1.6,0.9,3.1,1.3,4.8c-1.9,0.5-3.7,1-5.6,1.6c0.5,1.9,1,3.8,1.5,5.7
			c1.2-0.3,2.4-0.6,3.6-1c1.2-0.3,2.3-0.6,3.5-0.9c0.4,1.6,0.8,3.1,1.3,4.8c-4.2,1.1-8.4,2.3-12.6,3.4c-2.2-8.3-4.5-16.6-6.7-24.9
			c4.2-1.1,8.4-2.3,12.6-3.4c0.4,1.6,0.9,3.2,1.3,4.8c-2.4,0.6-4.7,1.3-7.1,1.9c0.4,1.5,0.8,3,1.2,4.4C116.7,44.9,117.1,45,117.3,45
			z"/>
		<path class="st7" d="M70.4,94.6c-0.1,0-0.1,0.1-0.2,0c-0.2-0.1-0.3-0.1-0.4-0.1c-1.2,0.3-2.3,0.6-3.5,0.1
			c-0.2-0.1-0.5-0.1-0.7-0.1c0,0-0.1,0-0.1-0.1c-0.2-0.1-0.4-0.2-0.5-0.2c-0.1,0-0.1,0-0.2-0.1c0-0.1,0-0.2-0.1-0.3
			c-1.1-0.9-2.1-1.8-3.2-2.6c-0.1-0.1-0.3,0-0.5,0c0,0-0.1,0,0-0.1c-0.3-0.3-0.6-0.5-0.9-0.7c0,0,0,0,0-0.1c0.1-0.8-0.5-0.6-0.9-0.7
			c-2-1.6-4.2-3.2-6.1-4.9c-2.8-2.5-3-5.6-0.7-8.7c0.7-1,1.7-1.9,2.8-2.6c1.8-1.2,3.7-1.2,5.6-0.1c1.5,0.8,2.8,2,4.3,3
			c-1.2,1.5-2.3,2.9-3.5,4.4c-0.8-0.6-1.5-1.2-2.3-1.8c-0.2-0.1-0.4-0.3-0.5-0.4c-0.9-0.6-1.4-0.6-2,0.2c-0.6,0.7-0.5,1.3,0.3,2
			c1.8,1.5,3.6,2.9,5.4,4.4c1.3,1,2.6,2.1,3.9,3.2c0.1,0.1,0.2,0.2,0.3,0.2c0,0,0,0.1,0,0.1c0.2,0.7,0.9,1.1,1.9,1.1
			c0,0,0.1,0,0.2,0c0.2-0.1,0.4-0.2,0.6-0.3c0,0,0-0.1,0.1-0.1c0.1-0.1,0.1-0.2,0.2-0.2c0,0,0-0.1,0.1-0.2c0.9-0.3,0.5-1,0.4-1.3
			c-0.3-0.9-1.1-1.3-2-1.5c0,0,0,0,0-0.1c-0.4-0.3-0.8-0.6-1.1-0.8c0,0,0,0,0-0.1c-0.2-0.4-0.3-0.7-0.6-1.1c0,0,0.1-0.1,0.3-0.2
			c0,0,0,0,0,0c0,0,0,0,0-0.1c0-0.1,0.1-0.2,0.1-0.2c0,0,0,0,0,0c0,0,0,0-0.1-0.1c0-0.2,0-0.4,0-0.5c0,0,0,0,0.1,0
			c0.3-0.1,0.5-0.2,0.7-0.4c0.3-0.3,0.5-0.8,0.9-1c0.4-0.3,0.4-0.5,0.2-0.9c0,0,0,0,0.1,0c0.4,0,0.8,0,1.2,0c0,0,0,0,0.1,0.1
			c0.1,0.1,0.1,0.1,0.2,0.1c0,0,0,0,0,0.1c0.1,0.8,0.8,0.8,1.3,0.9c0,0,0.1,0,0.1,0.1c0.1,0.5,0.1,1,0.7,0.5
			c0.1,0.1,0.2,0.2,0.4,0.3c0.1,0.1,0.1,0.1,0.2,0.1c0,0,0,0,0,0.1c0.1,0.3,0.3,0.6,0.5,0.8c1.1,1.2,1.8,2.6,1.7,4.2
			c0,0.3,0,0.6,0,0.9c0,0,0,0.1-0.1,0.2c0,0.1,0,0.2,0,0.2c0,0.1,0,0.2-0.1,0.3c-0.2,0.1-0.4,0.2-0.4,0.3c-0.1,0.3,0,0.5,0,0.8
			c0,0,0,0-0.1,0c-0.7,0.1-0.6,0.8-0.7,1.2c0,0,0,0-0.1,0c-0.3,0.1-0.5,0.3-0.7,0.4c-0.2,0.2-0.5,0.4-0.7,0.7
			c-0.2,0.3-0.4,0.6-0.7,0.9c0,0,0,0-0.1,0C70.9,94.1,70.3,93.9,70.4,94.6z"/>
		<path class="st6" d="M186.3,239.2c-2.1,0.7-4.1,1.4-6.2,2.1c0.6,1.7,1.1,3.3,1.7,5c1.7-0.6,3.4-1.2,5.2-1.8
			c0.5,1.6,1.1,3.1,1.6,4.7c-1.8,0.6-3.5,1.2-5.2,1.8c1.1,3.4,2.3,6.7,3.4,10.1c-1.8,0.6-3.6,1.2-5.5,1.8
			c-2.8-8.2-5.6-16.4-8.4-24.6c4.1-1.4,8.1-2.7,12.1-4.1c0.5,1.5,1,3,1.5,4.4C186.7,238.9,186.5,239.1,186.3,239.2z"/>
		<path class="st6" d="M257.4,115.7c-0.9,0.3-1.8,0.7-2.7,1c-0.8-2.2-1.6-4.3-2.5-6.5c-1.6,0.6-3.2,1.2-4.9,1.8
			c0.6,1.7,1.3,3.4,1.9,5.1c-1.6,0.6-3,1.1-4.6,1.7c-0.6-1.7-1.3-3.4-1.9-5.1c-3.3,1.2-6.6,2.5-9.9,3.7c-0.7-1.8-1.3-3.5-2-5.4
			c8-3,16-6,24.1-9.1c1.5,4,3,7.9,4.5,11.9C258.7,115.2,258,115.5,257.4,115.7z"/>
		<path class="st6" d="M225.5,209.3c-1.7-1.2-3.4-2.3-5.1-3.5c1.1-1.6,2.2-3.1,3.3-4.7c5.7,4,11.4,7.9,17.1,11.9
			c0.8-1.2,1.7-2.4,2.5-3.6c1.4,0.9,2.7,1.9,4.1,2.8c-2.8,4-5.5,8-8.4,12c-1.4-1-2.7-1.9-4.1-2.8c0.8-1.2,1.7-2.4,2.5-3.6
			C233.4,214.9,229.5,212.1,225.5,209.3z"/>
		<path class="st6" d="M51,168.3c1-0.2,1.9-0.5,2.8-0.7c1.1,4.1,2.2,8.1,3.3,12.3c-8.3,2.2-16.6,4.4-24.9,6.7
			c-0.5-1.9-1-3.7-1.5-5.5c6.7-1.8,13.4-3.6,20.1-5.4c-0.6-2.3-1.2-4.5-1.8-6.7C49.8,168.7,50.4,168.5,51,168.3z"/>
		<path class="st6" d="M116.5,237.8c1.6,0.5,3.2,0.9,4.9,1.3c-2.3,8.4-4.6,16.7-7,25.1c-1.9-0.5-3.7-1-5.6-1.5
			c2.3-8.3,4.6-16.6,6.9-25C116,237.7,116.2,237.7,116.5,237.8z"/>
		<path class="st6" d="M40.5,94.7c0.2-0.4,0.4-0.7,0.6-1.2c7.6,3.9,15.3,7.8,23,11.7c-0.9,1.7-1.7,3.4-2.6,5.1
			c-7.7-3.9-15.3-7.8-23-11.7C39.2,97.3,39.8,96.1,40.5,94.7z"/>
		<path class="st5" d="M165.4,52.2c-0.4,2.3-0.8,4.5-1.2,6.8c-1.9-0.3-3.8-0.6-5.6-1c1.5-8.5,2.9-16.9,4.4-25.4
			c1.9,0.3,3.7,0.6,5.6,1C167.5,39.8,166.5,46,165.4,52.2z"/>
		<path class="st8" d="M211.8,237.2c-1.1,0.8-2.1,1.5-3.2,2.2c-1-1.4-1.9-2.7-2.8-4.1c2.8-1.9,5.5-3.8,8.2-5.8
			c1,1.4,1.9,2.7,2.9,4.1C215.1,234.8,213.5,236,211.8,237.2z"/>
		<path class="st8" d="M92.3,242.7C92.3,242.7,92.3,242.7,92.3,242.7c-0.1,0.2-0.1,0.2-0.2,0.3c-0.2,0.4-0.5,0.9-0.7,1.3
			c-2.9-1.7-5.8-3.3-8.7-5c0.8-1.4,1.6-2.8,2.5-4.3c2.7,1.6,5.4,3.1,8.1,4.8c0.1,0.3,0.2,0.6,0.2,0.8c0,0,0,0-0.1,0
			c-0.1,0.1-0.1,0.2-0.1,0.3c0,0,0,0-0.1,0c-0.2,0.2-0.3,0.5-0.4,0.7c0,0,0,0.1-0.1,0.1C92.7,242,92.5,242.4,92.3,242.7z"/>
		<path class="st8" d="M170.4,261.6c0.2,1.3,0.4,2.6,0.7,3.9c-1.9,0.3-3.6,0.6-5.5,1c-0.3-1.7-0.6-3.3-0.9-5.1
			c1.8-0.3,3.6-0.7,5.5-1C170.2,260.8,170.3,261.2,170.4,261.6z"/>
		<path class="st8" d="M127.9,266.8c-1-0.1-2-0.3-2.9-0.4c-0.2,0-0.4-0.3-0.4-0.5c0.2-1.6,0.4-3.1,0.7-4.7c1,0.1,1.9,0.3,2.8,0.4
			c0.9,0.1,1.8,0.3,2.8,0.4c-0.2,1.7-0.5,3.4-0.7,5.1C129.3,267,128.6,266.9,127.9,266.8z"/>
		<path class="st9" d="M75,88.9c0-0.3-0.1-0.6-0.1-0.9c0.1-1.7-0.5-3-1.7-4.2c-0.2-0.2-0.3-0.5-0.5-0.8C74.6,84.3,75.5,86.7,75,88.9
			z"/>
		<path class="st9" d="M61,91.3c0.2-0.1,0.4-0.2,0.5-0.1c1.1,0.9,2.1,1.7,3.2,2.6c0,0,0,0.1,0,0.3C63.4,93.2,62.2,92.3,61,91.3z"/>
		<path class="st9" d="M65.6,94.6c0.2,0,0.5,0,0.7,0c1.2,0.5,2.3,0.2,3.5-0.1c0.1,0,0.2,0,0.3,0.1C68.6,95.5,67.1,95.3,65.6,94.6z"
			/>
		<path class="st9" d="M68.1,86.1c0.9,0.1,1.7,0.6,2,1.4c0.1,0.3,0.5,1-0.3,1.3c0.3-0.9,0.2-1.2-0.5-1.8
			C68.8,86.7,68.5,86.5,68.1,86.1z"/>
		<path class="st9" d="M68.6,80.7c0.2,0.3,0.2,0.6-0.2,0.9c-0.3,0.3-0.6,0.7-0.9,1c-0.2,0.2-0.4,0.2-0.7,0.4
			C67.4,82.2,68,81.4,68.6,80.7z"/>
		<path class="st9" d="M66.7,83.8c-0.1,0.1-0.3,0.2-0.3,0.2c0.2,0.4,0.4,0.8,0.6,1.1c-0.4-0.2-0.8-0.5-1.3-0.9
			c0.4-0.5,0.7-0.9,1.1-1.3c0,0.1,0,0.3,0.1,0.5c0,0.1,0,0.1,0,0.1C66.8,83.6,66.7,83.6,66.7,83.8C66.7,83.8,66.7,83.8,66.7,83.8z"
			/>
		<path class="st9" d="M71.4,94c0.2-0.3,0.4-0.6,0.6-0.9c0.2-0.2,0.4-0.5,0.7-0.7c0.2-0.2,0.4-0.3,0.7-0.4
			C72.8,92.6,72.1,93.3,71.4,94z"/>
		<path class="st9" d="M68.4,89.7c-0.9,0.1-1.6-0.3-1.8-1.1C67.2,88.9,67.8,89.3,68.4,89.7z"/>
		<path class="st9" d="M71.4,81.7c-0.5-0.1-1.1-0.1-1.3-0.9C70.5,81.1,70.9,81.4,71.4,81.7z"/>
		<path class="st9" d="M69.9,80.6c-0.4,0.1-0.7,0.1-1.2,0.1c0.1-0.2,0.2-0.4,0.4-0.7C69.4,80.2,69.6,80.3,69.9,80.6z"/>
		<path class="st9" d="M73.5,91.9c0.1-0.4-0.1-1,0.7-1.2C74,91.1,73.8,91.5,73.5,91.9z"/>
		<path class="st9" d="M59.1,89.8c0.4,0.1,1-0.1,0.9,0.7C59.7,90.3,59.4,90,59.1,89.8z"/>
		<path class="st9" d="M67,85.2c0.4,0.2,0.7,0.5,1.1,0.8C67.7,85.8,67.3,85.6,67,85.2z"/>
		<path class="st9" d="M74.3,90.7c0-0.2-0.1-0.5,0-0.8c0-0.1,0.2-0.2,0.4-0.3C74.6,90,74.4,90.4,74.3,90.7z"/>
		<path class="st9" d="M70.4,94.6c-0.1-0.7,0.5-0.5,0.9-0.6C71.1,94.2,70.8,94.4,70.4,94.6z"/>
		<path class="st9" d="M72.2,82.4c-0.6,0.5-0.6,0-0.7-0.5C71.7,82.1,72,82.2,72.2,82.4z"/>
		<path class="st9" d="M60,90.6c0.3,0.2,0.6,0.4,0.9,0.6C60.6,91,60.3,90.8,60,90.6z"/>
		<path class="st10" d="M92.4,242.7c0.1-0.3,0.3-0.7,0.5-1C92.8,242,92.6,242.3,92.4,242.7z"/>
		<path class="st10" d="M93.6,240.5c-0.1-0.2-0.1-0.5-0.2-0.8C93.9,239.8,93.9,240.1,93.6,240.5z"/>
		<path class="st10" d="M93,241.5c0.1-0.2,0.2-0.4,0.3-0.7C93.3,241,93.2,241.2,93,241.5z"/>
		<path class="st9" d="M69.2,89.4c-0.1,0.1-0.3,0.2-0.5,0.3C68.8,89.6,68.9,89.5,69.2,89.4z"/>
		<path class="st9" d="M64.9,94.3c0.1,0,0.3,0.1,0.5,0.2C65.3,94.5,65.1,94.4,64.9,94.3z"/>
		<path class="st9" d="M66.6,88.5c-0.1,0-0.2-0.1-0.3-0.2C66.4,88.3,66.5,88.4,66.6,88.5z"/>
		<path class="st10" d="M93.4,240.8c0-0.1,0-0.1,0.1-0.2C93.5,240.6,93.5,240.7,93.4,240.8z"/>
		<path class="st9" d="M69.5,89.1c0,0.1,0,0.1-0.1,0.2C69.4,89.2,69.4,89.1,69.5,89.1z"/>
		<path class="st9" d="M72.8,82.9c0,0-0.1,0-0.1-0.1C72.7,82.8,72.7,82.8,72.8,82.9z"/>
		<path class="st10" d="M92.2,243c0,0,0-0.1,0-0.1C92.3,242.8,92.2,242.9,92.2,243z"/>
		<path class="st9" d="M70.1,80.7c0,0-0.1,0-0.1-0.1C70,80.7,70,80.7,70.1,80.7z"/>
		<path class="st9" d="M74.9,89.4c0,0,0-0.1,0-0.2C74.9,89.2,74.9,89.3,74.9,89.4z"/>
		<path class="st1" d="M183.8,52.9C183.8,52.9,183.8,52.9,183.8,52.9C183.8,52.9,183.8,52.9,183.8,52.9
			C183.8,52.9,183.8,52.9,183.8,52.9z"/>
		<path class="st9" d="M66.7,83.8C66.7,83.8,66.7,83.8,66.7,83.8C66.7,83.8,66.7,83.8,66.7,83.8C66.7,83.8,66.7,83.8,66.7,83.8z"/>
		<path class="st9" d="M66.8,83.5C66.8,83.5,66.9,83.5,66.8,83.5C66.9,83.5,66.9,83.5,66.8,83.5C66.8,83.5,66.8,83.5,66.8,83.5z"/>
		<path class="st11" d="M221.5,90.8c-0.7,0.7-1.4,1.3-2.2,2c-2.9-3.1-5.7-6.2-8.6-9.4c6.3-5.8,12.7-11.6,19-17.4
			c1.3,1.4,2.6,2.8,3.9,4.2c-5.1,4.7-10.2,9.4-15.4,14.1c1.6,1.7,3.1,3.4,4.7,5.1C222.4,89.9,222,90.3,221.5,90.8z"/>
		<path class="st2" d="M212.5,52c1.1,0.8,2.1,1.5,3.2,2.3c-3.5,7.9-7,15.8-10.6,23.9c-1.6-1.1-3.1-2.2-4.7-3.4
			c0.6-1.4,1.3-2.8,1.9-4.2c-1-0.7-1.9-1.4-2.9-2.1c-1.1,1.2-2.2,2.3-3.3,3.5c-1.5-1-2.9-2.1-4.4-3.2c6.1-6.2,12.2-12.4,18.3-18.7
			C210.8,50.8,211.7,51.4,212.5,52 M206,62.9c0.4-0.8,0.7-1.6,1.1-2.4c0,0-0.1,0-0.1-0.1c-1.4,1.5-2.8,3-4.2,4.5
			c0.6,0.4,1.1,0.8,1.7,1.2C205,65,205.5,64,206,62.9z"/>
		<path class="st6" d="M72.5,207.7c1.1,1.3,2.1,2.6,3.2,3.9c-6.7,5.5-13.3,11-20.1,16.6c-1.2-1.5-2.4-3-3.7-4.4
			c6.7-5.5,13.3-11,20-16.5C72.2,207.3,72.3,207.5,72.5,207.7z"/>
	</g>
	<g>
		<path class="st12" d="M160.1,213.4c-0.3,0-0.6,0-0.8,0.1c-0.2,0.1-0.2,0.4-0.4,0.6h-0.9c0-2.9,0-5.7,0-8.6c0-3.2-0.1-6.5-0.2-9.7
			c0-0.3-0.1-0.6-0.1-0.8c-0.2-1.8-0.6-3.6-0.7-5.5c-0.1-4.8,0-9.6,0-14.4c0-0.6,0.4-0.9,1-0.8c0.5,0.1,1,0,1-0.6
			c0-0.5-0.2-1-0.3-1.6c1-0.2,1.3-0.8,1.1-2h-4.7c0.1-0.7,0.3-1.3,0.3-1.8c0-1.7-0.1-3.4-0.2-5.1c0-0.4-0.1-0.8-0.1-1.2
			c-0.2-2-0.5-4-0.5-6c-0.1-2.1,0.1-4.2,0.1-6.3c0-1.7-0.2-3.5-0.3-5.2c-0.2-3.6-0.3-7.2-0.5-10.8c-0.2-4.2-0.3-8.4,0.3-12.5
			c0.1-0.8,1.2-1.3,1.8-1.1c0.4,0.1,1.2-0.3,1.3-0.7c0.3-1,0.5-2,0.7-2.9c0.1-0.5,0-0.8-0.6-0.8c-1,0-2.1,0-3.1,0
			c-0.7,0-1-0.5-0.8-1.2c0.1-0.5,0.2-1.1,0.1-1.6c-0.1-0.9-0.5-1.7-0.5-2.6c0-2.6,0.1-5.2,0.2-7.9c0-0.2,0-0.3,0.1-0.5
			c0.3-0.6,0.6-1.3,1-1.9c0.1-0.2,0.4-0.4,0.5-0.6c0,0.1,0,0.2,0,0.2c0.4,0.1,0.8,0.4,1.2,0.4c0.2,0,0.6-0.3,0.7-0.5
			c0.2-1.1,0.4-2.3,0.5-3.4c0-0.7-0.3-1-1-1c-0.7,0-1.5-0.1-2.2-0.2c-0.5,0-1-0.1-1.5-0.3c-0.4-0.1-0.8-1-0.6-1.2
			c0.6-0.4,0.5-1.1,0.6-1.6c0.3-1.3,0.6-2.6,0.9-3.9c0.2-1-0.6-2.3-1.5-2.8c-1.9-1-3.6-2.3-4.9-4c-0.8-1-1.2-2.1-0.4-3.4
			c0.6-0.9,0.1-1.6-1-1.6c-0.3,0-0.6,0-0.8,0c-0.1,0-0.3,0.1-0.4,0.2c-0.7,0.9-0.6,1.4,0.1,2.3c0.2,0.2,0.4,0.5,0.6,0.7
			c0.4,0.7,0.5,1.3-0.1,1.8c-1,0.8-1.6,2-2.9,2.5c-0.3,0.1-0.6,0.3-0.9,0.5c-0.5,0.3-0.8,0.7-0.7,1.3c0.1,0.1,0.3,0.1,0.4,0.2
			c-0.1,0.3-0.3,0.5-0.5,0.8c-0.1,0.1-0.1,0.2-0.2,0.2c-0.1,0.3,0.1,0.5,0.3,0.5c0.6-0.1,1.3,0,1.6-0.8c-0.1-0.3-0.3-0.6-0.3-0.8
			c0-0.3,0.2-0.6,0.4-0.8c0.6-0.4,1.2-0.6,1.7-0.9c-0.2-0.8,1-2,1.7-1.9c0.4,0.1,0.6,0.9,0.3,1.3c-0.1,0.2-0.3,0.3-0.5,0.5
			c0.4,0.1,0.7,0.3,1.1,0.3c0.6,0.1,0.7,0.6,0.7,1.1c0,0.6-0.4,0.5-0.8,0.6c-0.5,0.1-0.6,0.3-0.4,0.7c0.1,0.2,0.2,0.5,0.2,0.8
			c0.2,0.8-0.2,1.2-0.9,1.2c-0.4,0-0.9-0.2-1.3-0.2c-0.2,0-0.5,0.1-0.5,0.3c0,0.2,0,0.5,0.1,0.7c0.1,0.1,0.4,0.1,0.5,0
			c0.7-0.6,1.7-0.7,2.3,0c0.2,0.2,0.4,0.6,0.5,1c0.1,0.3,0,0.6,0,0.9c0.1,0,0.1,0,0.2,0c0-0.5,0-1,0.1-1.7c0.4,0.3,0.7,0.6,1,0.8
			c0.3,0.1,0.5,0.3,0.7,0.2c0.6-0.1,0.6,0.2,0.6,0.6c0,0.3,0.1,0.6,0.1,1.1c-0.5-0.3-0.9-0.6-1.3-0.8c0,0,0-0.1,0.1-0.1
			c0.1,0,0.3,0.1,0.5,0.1c0.1,0,0.1,0,0.1-0.1c-0.1-0.2-0.2-0.4-0.4-0.6c-0.1,0.1-0.3,0.2-0.5,0.3c-0.1,0.5-0.4,0.8-0.1,1.3
			c0.1,0.1-0.3,0.6-0.5,0.8c-0.2,0.4-0.5,0.8-0.7,1.2c-0.4,0.9-1.9,1.1-2.5,0.3c0,0-0.1,0-0.1,0c-0.4,0.8-0.8,0.9-1.5,0.4
			c-0.6-0.4-1.1-0.3-1.6,0.3c-0.2,0.2-0.5,0.3-0.7,0.3c-0.2,0-0.3-0.3-0.4-0.5c0,0,0,0,0-0.1l-0.1-0.1c0,0,0-1.6,0-2.3
			c0-0.5,0-1-0.1-1.4c-0.1-0.5-0.5-1-0.6-1.5c-0.3-1-0.4-1.9,0.6-2.6c0.1,0,0.1-0.2,0.2-0.3c0-0.2,0-0.3,0-0.6
			c-0.4,0.2-0.6,0.4-0.8,0.6c-0.9,1-1,2.2-0.7,3.5c0.3,1.1,0.5,2.2,0.7,3.3c0,0.2,0,0.5,0.1,0.8c0,0.3-0.1,0.5-0.1,0.7
			c-0.1,0-0.2,0.1-0.3,0.1c-1.3,0.1-2.5,0.3-3.7,0.4c-0.9,0.1-1.4,0.7-1.5,1.4c0,0.9,0.2,1.7,0.4,2.6c0,0,0.1,0,0.2,0.1
			c0.4-0.3,0.8-0.5,1.3-0.9c0.1,0,0.3,0.1,0.6,0.1c-0.1,0.6-0.2,1.1-0.2,1.6c0,0.3,0,0.7,0.2,0.8c0.7,0.5,0.8,1.1,0.8,1.8
			c0.1,3.4,0.1,6.8,0.2,10.2c0,0.4,0,0.8,0.1,1.1c0.5,0.8-0.2,1.2-0.5,1.7c-0.6-0.4-4.5-0.4-5.6-0.1c1.2,0,1.1,0.9,1.2,1.6
			c0,0.4,0,0.8,0.1,1.2c0.1,0.3,0.3,0.7,0.5,0.9c0.4,0.3,1,0.4,1.2,0.7c0.4,0.6,1.1,0.6,1.7,0.7c0.2,0,0.4,0.3,0.4,0.5
			c0.1,2,0.3,3.9,0.3,5.9c0.1,3.1,0.2,6.2-0.3,9.3c-0.1,0.5,0,1.1-0.8,1.2c0.2,0,0.4,0,0.5,0c0,0,0,0.1,0,0.2c-0.3,0-0.6,0.1-1,0.2
			v1.4h1.2c0.1,0.4,0.1,0.6,0.2,0.9c0.1-0.1,0.3-0.2,0.4-0.3c0,0.6-0.1,1.4-0.1,2.1c0,0.1-0.2,0.3-0.4,0.5c-0.1,0.8-0.2,1.5-0.2,2.3
			c-0.1,2.5-0.1,5-0.3,7.5c-0.1,2.3-0.5,4.7,0,7c0.4,2.2,0.4,4.3,0.2,6.5c-0.1,1.5-0.2,1.5-1.6,1.7c-0.3,0-0.6,0.3-0.8,0.5
			c-0.1,0.1,0.1,0.5,0.1,0.7c0.8-0.2,1.5-0.4,2.1-0.5c0,0,0.1,0,0.1,0c0,0,0,0.1,0,0.2c-0.2,0.5-0.3,0.9-0.5,1.4
			c-1.5-0.9-3-0.2-4.4-0.2c-0.1,0.6-0.2,1.2-0.2,1.8c0,0.7,0.3,1.4,0.3,2.2c0,0.6,0.4,0.7,0.8,0.7c0.6,0,1.1-0.1,1.8-0.1
			c0.1,2.2,0.3,4.3,0.2,6.3c-0.2,6.1-0.7,12.2-0.9,18.3c-0.1,4.6,0,9.3,0,13.9v0.6c-1,0.1-1.8,0.2-2.8,0.4c0.1,1.8,0.1,3.6,0.3,5.3
			c0,0.4,0.5,0.8,0.9,1c0.2,0.1,0.7-0.1,0.9-0.4c0.5-0.6,1-0.9,1.7-1.1c-0.1,1.2-0.1,2.3-0.2,3.5c0,0,0,0,0,0c0,0.2,0,0.4,0,0.7
			c0.3,0,0.5,0,0.8,0c0-0.3,0-0.6,0-0.8c0,0,0,0,0,0c0.1-0.5,0.2-0.8,0.2-1.2c0.1-0.9,0.3-1.7,1.2-2.1c0.8-0.4,1.5-0.1,1.6,0.8
			c0.1,0.7,0.9,1.1,1.5,0.6c0.7-0.5,1.4-0.8,2.3-0.7c0.4,0,0.8-0.1,1.1-0.2c0.9,0,1.7,0,2.6,0c0.2,0,0.5,0,0.6,0
			c1.2-0.4,1.2-0.4,1.9,0.5c0,0.1,0.1,0.1,0.1,0.1c0.7-0.5,1.3-0.9,2-1.4c0,1.1,0.5,1.1,1.1,0.9c0.1,0,0.2,0,0.3,0
			c0.6-0.2,1.1-0.5,1.7-0.6c0.2-0.1,0.5,0.1,0.9,0.2c0.7,0.1,1.3,0.2,1.9,0.3c0.5,0.1,1.2-0.1,1.3,0.7c0,0,0,0,0.1-0.1
			c0,0-0.1,0.1-0.1,0.1c0,0.8,0.1,1.6,0.1,2.3c0,0,0,0.1,0.1,0.2c0.8,0.2,0.8-0.3,0.7-0.8c0,0,0-0.1,0-0.1c0,0,0-0.1,0-0.1v0
			c0,0,0,0,0,0c0-0.2,0-0.2,0-0.3c-0.2,0-0.4-0.1-0.5-0.2c0.1,0.1,0.3,0.1,0.5,0.1c0-0.2,0-0.4,0-0.5c0,0,0-0.1,0-0.1c0,0,0,0,0,0.1
			c0-0.2,0-0.4,0-0.6c0,0,0,0,0,0c0,0,0,0,0.1,0c0.4,0,0.6,0.1,1,0.1c0.1-0.7,0.1-1.3,0.2-2c0.1-1.3,0.2-2.6,0.3-3.8
			C160.2,214.1,160.1,213.8,160.1,213.4z M145.1,77.7c-0.2-0.3,0-0.8,0-1.1c0.4,0.2,0.6,0.4,0.8,0.6c0.4,0.2,0.7,0.4,0.2,0.8
			C145.8,77.9,145.3,77.9,145.1,77.7z M148.6,88.3c0,0.2-0.5,0.3-0.7,0.5c-0.4-0.5-0.7-1-1.1-1.5c0.2-0.2,0.4-0.4,0.6-0.5
			c0.2-0.1,0.4-0.3,0.6-0.3c0.2,0,0.5,0.2,0.5,0.4C148.7,87.4,148.7,87.9,148.6,88.3z M156.9,171.8h0.9c0.4,1,0.3,1.3-0.5,1.4
			c-0.3-0.1-0.5-0.2-0.5-0.3C156.8,172.5,156.9,172.1,156.9,171.8z M156.9,214.1c-0.2,0.2-0.4,0.2-0.6,0.3v-1.6c0.1,0,0.1,0,0.2-0.1
			C156.6,213.2,156.8,213.6,156.9,214.1z M155.6,192.9c0.1,0,0.2,0,0.2,0c0,0.4,0.1,0.8,0.1,1.2c0.5,1.1,0.4,2.2,0.4,3.3
			c0,0.7-0.2,0.9-0.7,1.1V192.9z M154.6,194c0,0.2-0.2,0.4-0.3,0.5c-0.1,0.1-0.4,0-0.4,0c0-0.2-0.1-0.6,0.1-0.7
			c0.3-0.3,0.5-0.6,0.3-1c-0.3-0.3-0.5-0.4-0.7-0.6c0.3-1,0.8-1.1,1.7-0.7c-0.2,0.4-0.4,0.7-0.6,1.1
			C154.6,193.1,154.6,193.5,154.6,194z M154.6,196v3c0,0-0.1,0-0.1,0c0-0.1,0-0.3,0-0.4c-0.1-0.6-0.3-1-0.4-1.5
			c-0.1-0.3-0.1-0.6-0.2-0.8C154.1,196.2,154.3,196.1,154.6,196z M153.6,187.1c0.1,0,0.2-0.3,0.3-0.5c0-0.2-0.3-0.4-0.3-0.5
			c0-1,0.1-1.9,0.1-2.9c0.3,0.1,0.5,0.2,0.9,0.3c0,0.9,0,1.7,0,2.6c0,0.1-0.2,0.2-0.3,0.4c0.1,0.6,0.4,1.1,0.3,1.5
			c-0.1,0.6,0.2,0.9,0.6,1c-0.1,0.3-0.2,0.4-0.3,0.6c0,0.4-0.2,0.7-0.6,0.5c-0.3-0.1-0.8-0.2-0.6-0.8c0.1-0.3,0.1-0.6,0-0.8
			c-0.2-0.2-0.4-0.4-0.5-0.6C153.1,187.7,153,187.3,153.6,187.1z M153.2,161.8c0.1,0.4,0.2,0.9,0.1,1.3c-0.1,0.5-0.3,0.9-0.6,1.5
			c-0.2-1.3-0.4-2.5-0.6-3.7c0-0.1-0.1-0.1-0.2-0.1c-0.1,0.3-0.1,0.5-0.1,0.7c-0.1,0-0.1,0.1-0.2,0.1c-0.2-0.3-0.5-0.6-0.7-0.9
			c0.1,0,0.2-0.1,0.3-0.1c0.1-0.2,0.1-0.6,0-0.7c-0.5-0.2-0.4-0.6-0.4-1v-2.2c1-0.1,1-0.1,1,0.8c0,1,0,2,0,3
			c0.1,0.1,0.1,0.1,0.1,0.1c0.4,0,0.7,0,1.1,0C153,161.2,153.2,161.5,153.2,161.8z M149.5,198.7c0.1-0.6,0.1-1.1,0.2-1.6
			c0-0.2,0.3-0.3,0.4-0.5c0.1,0,0.2,0.1,0.3,0.1c0,0.3,0,0.7-0.1,1c0,0.2-0.1,0.5-0.2,0.7c0.1,0.5,0.4,0.9,0.4,1.2
			c0,0.8-0.1,1.7-0.1,2.5c-0.2,0.4-0.3,0.7-0.4,1c0.2,0.2,0.4,0.4,0.6,0.6c-1,0.3-1.1,0.2-1.1-0.6c0-0.4,0-0.9,0-1.3
			c-0.1-0.9,0-1.8-0.5-2.5C149.1,199.2,149.3,198.9,149.5,198.7z M148.8,194.4c0.2-0.3,0.5-0.6,0.9-1c0.1,0.3,0.2,0.5,0.3,0.7
			c0.2,0.1,0.4,0.2,0.6,0.2c-0.1,0.3-0.3,0.6-0.5,0.8c-0.1,0.1-0.3,0-0.5,0.1C149.4,195,149.1,194.8,148.8,194.4z M149.5,204.9
			c0.3,0.3,0.6,0.5,0.8,0.8c0.2,0.4,0.3,0.7,0.5,1.2h-1.5C149.4,206.2,149.5,205.6,149.5,204.9z M150.2,212.3
			c0.1,0.4,0.1,0.6,0.1,0.9c0.3,0,0.5,0.1,0.8,0.1v0.2h-1.6C149.7,213.2,149.9,212.8,150.2,212.3z M149.8,210.8
			c0.3,0.1,0.6,0.1,1,0.2c0.1,0.5,0.3,1-0.3,1.1c-0.2,0.1-0.8-0.1-0.8-0.2C149.6,211.5,149.8,211.2,149.8,210.8z M151,209.4
			c-0.4,0-0.7,0.1-0.9,0.1c-0.4,0-0.6-0.1-0.5-0.5c0-0.3,0-0.6,0.1-0.9h2.9v1.3H151z M151.1,206.7c0.1-0.3,0.1-0.6,0.2-0.8
			c0-0.3,0-0.6,0.1-0.9c0.5,0.2,1,0.3,1.4,0.4v0.9C152.2,206.5,151.7,206.6,151.1,206.7z M152.5,203.6c0,0.1-0.2,0.2-0.3,0.4
			c-0.1-0.1-0.3-0.2-0.3-0.4c-0.2-0.8-0.7-1.5-0.2-2.3c-0.4-1-0.7-1.8-0.4-2.8c0.1-0.5,0-1.1,0-1.6c0-0.3,0-0.7,0.5-0.7
			c0.3,0.1,0.9,0.4,0.9,0.6c0,1.4,0.5,2.9-0.2,4.3C152.9,202,152.8,202.8,152.5,203.6z M151.9,193.3c0.3,0.3,0.6,0.5,0.7,0.8
			c0,0.3-0.1,0.8-0.4,0.9c-0.7,0.3-1.2-0.1-1.5-0.9c0.2-0.2,0.5-0.5,0.8-0.7c0-0.7-0.4-0.9-0.9-0.7c-0.4,0.1-0.7,0.4-1,0.6v-1.4
			c1.1,0.1,2.2-0.7,3.2,0.1C152.6,192.6,151.6,192.5,151.9,193.3z M152.3,190.6c-0.2,0.2-0.7,0.1-1,0.1c-0.8-0.1-1.5-0.2-2.4-0.4
			c0.3-0.2,0.4-0.4,0.6-0.6c-0.2-0.7-0.9-1.4-0.3-2.2c0.1-0.3,0.1-0.5,0.1-0.7c-0.5-0.1-1.1-0.2-1.6-0.2c0,0,0-0.1,0-0.2
			c0.2,0,0.5-0.2,0.7-0.1c0.5,0.2,0.7-0.1,0.9-0.4c0.3-0.2,0.5-0.2,0.4-0.6c-0.1-0.4,0-0.8,0-1.2c-0.2-0.7-0.4-1.3-0.5-1.7
			c0.2-0.4,0.3-0.8,0.5-1.2c0.1,0.2,0.3,0.3,0.4,0.5c0.1,0.2,0.2,0.7,0.1,0.7c-0.6,0.4-0.3,0.9-0.4,1.4c0.1,0.4,0.3,0.7,0.5,1
			c0.2,0.6,0.3,1.3-0.4,1.7c-0.1,0.3-0.1,0.5-0.1,0.7c0.7,0.4,1.4,0.6,2.3,0.9c-0.2,0.1-0.3,0.3-0.5,0.3c-0.2,0.1-0.5,0-0.7,0.2
			c-0.2,0.1-0.3,0.4-0.3,0.6c0,0.2,0.3,0.4,0.5,0.4c0.5,0,1-0.1,1.8-0.1C152.7,189.9,152.6,190.4,152.3,190.6z M148.8,178.7
			c-0.1-0.1-0.2-0.1-0.2-0.2c0,0,0.1-0.1,0.1-0.1c0.1,0,0.1-0.1,0.1-0.1c0-0.9-0.3-1.9,0.9-2.3c0.2,0.2,0.4,0.5,0.6,0.8
			c-0.4,0.7-0.6,1.5-0.5,2.4c0.1,0.4,0.3,0.8,0.5,1.1c0,0.2,0,0.4-0.1,0.4c-0.6,0-1.2,0-1.9,0c0-0.1,0-0.1,0-0.2
			c0.1,0,0.2-0.1,0.3-0.2c0.2-0.3,0.2-0.7,0.2-1.1c-0.4-0.1-0.8-0.1-1.1-0.2C148.1,179,148.4,178.9,148.8,178.7
			C148.8,178.7,148.8,178.7,148.8,178.7z M151.1,183.4c0.1-1.4,0.1-2.7,0.2-4.1c0.6-0.3,1,0.1,1.3,0.4c-0.1,0.4-0.3,0.8-0.3,1.1
			c0,1.1,0,2.2,0,3.4c0,0.3,0,0.5-0.4,0.5c0.3,0.1,0.4,0.4,0.4,0.8c0,0.3,0.1,0.7,0.1,1c0,0.3-0.2,0.7-0.4,0.8
			c-0.2,0.1-0.7,0.2-0.9-0.3c-0.1-0.3-0.4-0.5-0.5-0.7c-0.1-0.2-0.2-0.5,0.2-0.6c0.2-0.1,0.2-0.6,0.3-0.9
			C151.2,184.2,151.1,183.8,151.1,183.4z M151.3,177.6V176h1v0.8c0,0.3,0,0.5,0,0.7C152,177.5,151.7,177.6,151.3,177.6z M150,175.5
			c-0.1,0-0.4-0.3-0.5-0.5c0.4-0.1,0.8-0.2,1.2-0.2c0.1,0,0.1,0,0.4,0.1C150.6,175.1,150.3,175.4,150,175.5z M150.8,170.7
			c-0.6-0.1-0.7,0.1-0.6,0.7c0,0.4-0.5,0.6-1.1,0.3c0.2-1,0-1.2-0.7-1.7c-0.4,0.3-0.7,0.4-0.9,0.6c-0.5,0.4-1.4,0.2-1.7-0.3
			c-0.1-0.1,0-0.5,0.1-0.6c0.2-0.2,0.5-0.4,0.7-0.5c0.5-0.3,1-0.5,1.4-1c0.4-0.6,1.7-0.6,2.5-0.1c-0.3,0.3-0.6,0.6-0.9,1
			c0,0,0.1,0,0.1,0c0.7,0.5,1.4,0.7,2.2,0.3c0.3-0.1,0.8,0.3,1.3,0.5C152.3,170.5,151.6,170.8,150.8,170.7z M149.7,109.3
			c-0.1,0.1,0,0.3-0.1,0.5c0,0.5,0,0.9,0,1.3c-0.1,0-0.1,0-0.2,0v-1c-0.1-2.7-0.3-5.2,0.1-7.8c0.2,0,0.5,0,0.7,0
			c-0.1-0.1-0.4-0.2-0.9-0.3c0.4-0.3,0.6-0.5,0.9-0.8c0.1,0,0.1,0.1,0.2,0.1v0.8c0,2,0.1,3.8,0,5.7
			C150.4,108.3,149.9,108.8,149.7,109.3z M149.8,112.3v0.9c-0.1,0-0.1,0-0.2,0v-1.8c0,0,0.1,0,0.1,0
			C149.7,111.7,149.7,112,149.8,112.3z M149.2,122.4c-0.3,0.1-0.5,0.2-0.6,0.3c0,0.2,0,0.4,0,0.5c0,0-0.1,0-0.1,0
			c0-0.1,0-0.2-0.1-0.4c-0.3-0.2-0.7-0.3-1-0.4c-0.1-0.1-0.2,0-0.3,0c-0.4-0.1-0.6-0.1-0.9-0.1c0-0.1,0-0.2,0-0.3
			c-1.2,0.9-2.4,0.2-3.6,0.2c-0.2,0-0.6-0.6-0.6-0.8c0-0.7,0.1-1.4,1-1.8c0.3,0.4,0.5,0.8,0.9,1.4c0.2-0.1,0.6-0.3,0.9-0.5
			c0.1,0.1,0.2,0.3,0.3,0.3c0.2,0.1,0.5,0.3,0.8,0.3c0.1,0,0.3-0.4,0.4-0.6c0.1-0.2,0.2-0.5,0.2-0.7c0.2,0.6,0.5,1,0.7,1.5
			c0.1,0,0.1-0.1,0.2-0.2c0.1-0.1,0.2-0.2,0.3-0.3c0.2-0.1,0.3-0.2,0.4-0.2c0.1-0.1,0.2-0.3,0.3-0.4c0.1,0.1,0.1,0.2,0.2,0.2
			C149.5,121,149.1,121.8,149.2,122.4z M147.9,117.6c-0.2,0-0.3,0.2-0.4,0.3c-0.7,0.2-1.4,0.4-2.1,0.5c-0.2,0-0.5-0.3-0.7-0.5
			c0.2-0.3,0.4-0.7,0.6-1c0.9-0.7,2-0.4,3-0.8c0.2-0.1,0.5-0.1,0.9-0.2c0,0.4,0.1,0.8,0.1,1.3C148.8,117.4,148.4,117.4,147.9,117.6z
			 M147.8,102.3c0-0.2,0-0.4,0-0.5h0.8c-0.1,0.3-0.2,0.6-0.3,0.9C148.2,102.6,148,102.5,147.8,102.3z M147.8,101
			c-0.2-0.5-0.5-0.9-0.7-1.4c-0.2-0.4,0.2-1,0.6-0.9c0.5,0.1,1,0.4,1.6,0.6C149.3,100.3,148.6,100.7,147.8,101z M150.5,112.9
			c0.1-1.1,0-2.2,0.2-3.3c0.1-0.9,0.5-1.7,0.8-2.5c0.1,0,0.1,0,0.2,0c0,0.2,0,0.3,0,0.5c0,2,0,4,0.1,5.9c0,0.2,0.2,0.5,0.4,0.6
			c0.2,0.1,0.5,0.2,0.7,0.3c0.2,0.1,0.3,0.4,0.4,0.6c0,0.1-0.3,0.2-0.4,0.3c-0.4,0.2-0.8,0.4-1.3,0.6c-0.5-0.2-1.2-0.4-1.1-1.1
			c0.1-0.4,0.1-1.1,0.8-1.1C150.6,113.6,150.4,113.4,150.5,112.9z M151.7,154.4c0.2,0.3,0.2,0.7,0.2,1.1c-0.1,0.9-0.1,0.9-1.2,0.9
			c0-0.6,0-1.3,0-1.9c0-0.2,0.1-0.4,0.2-0.6C151.1,154.1,151.5,154.2,151.7,154.4z M150.9,151.3c0.2-0.2,0.4-0.3,0.5-0.4
			c0.1,0.2,0.2,0.3,0.3,0.5c0.1,0.3,0.1,0.6,0.2,1C151,152.4,150.8,152.2,150.9,151.3z M151.9,147.6c-0.2,0.3-0.2,0.7-0.2,1.1
			c0,0.3,0,0.7,0,1c-0.1,0-0.1,0-0.2,0c-0.1-0.6-0.2-1.1-0.3-1.7c0,0.2-0.1,0.4-0.1,0.7c-0.4-1-0.3-2,0.3-2.6
			c0.3-1.5,0.5-2.9,0.7-4.2c0.5,0.7,0.7,1.7,0.8,2.7c0.1,1,0.1,1-1,1.3C152.3,146.6,152.2,147,151.9,147.6z M151.9,117.9
			c-1.1-0.2-0.7-0.9-0.7-1.6c0.6,0.1,1.3-0.1,1.6,0.5C153,117.5,152.5,117.8,151.9,117.9z M152.9,149.7v1c-0.5-0.4-0.6-1.2-0.1-1.8
			C152.9,149.2,152.9,149.5,152.9,149.7z M152.5,151.5c0.8,1.1,0.6,3.2,0.2,4.9c-0.1,0-0.1,0-0.2,0c-0.1-0.4-0.1-0.8-0.2-1.2
			C152.1,153.9,152.1,152.7,152.5,151.5z M150.1,124.6c0,0,0.1,0,0.1,0c0.1,0.5,0.1,1,0.2,1.5c0,0,0.1,0,0.2,0c0-0.3,0-0.7,0.1-1
			c0-0.4,0.1-0.7,0.1-1h0.2c0,0.7,0.1,1.3,0.1,2c-0.4,0.1-0.6,0.2-1,0.2V124.6z M150.7,137c0-0.2-0.1-0.5-0.2-0.8
			c0-0.1-0.1-0.1-0.1-0.1c-0.1-0.1-0.1-0.3-0.2-0.4c0.9-0.2,0.2-1,0.6-1.3c0.6,0.8,0.4,1.8,0.4,2.8c0,0.6,0.1,1.3,0.1,1.9
			c0.1,0.6,0.1,1.1,0.2,1.7c0.1,0.6-0.4,0.7-0.7,0.7c-0.2,0-0.6-0.3-0.7-0.6c-0.1-0.2,0-0.6,0.1-0.8C151,139,150.6,138,150.7,137z
			 M150.6,165.7c0,0.1-0.1,0.2-0.2,0.4c-0.1-0.1-0.4-0.2-0.3-0.2c0.1-0.4-0.1-0.5-0.4-0.8c-0.1-0.1,0-0.3,0.1-0.5
			C150.1,165.1,150.4,165.4,150.6,165.7z M151.3,166.4c0-0.6,0.1-1,0.1-1.5c0.1,0,0.2,0,0.3,0c0,0.4,0,0.9,0,1.3
			C151.7,166.3,151.4,166.3,151.3,166.4z M153.4,100.3c-0.1,0.3-0.1,0.6-0.2,0.7c-0.2,0.2-0.5,0.5-0.7,0.5c-0.5,0-0.7-0.3-0.7-0.8
			c0-0.9,0.8-1.7,1.9-1.5C153.6,99.5,153.5,99.9,153.4,100.3z M145,95.8c0.9-0.1,1.9-0.5,2.6,0.5c0.1,0.2,0.5,0.2,0.7,0.2
			c1.4-0.1,2.7-0.1,4.1-0.2c0.3,0,0.6,0,1,0c1,0,1.8,0,2.7,0c0.1,0.9,0.1,1-0.8,1h-1.1c-1.1,0-2.1,0.1-3.1,0.2
			c-0.3,0-0.5,0.1-0.8,0.1c-0.9,0.2-1.8,0-2.6-0.5c-0.1-0.1-0.1-0.3-0.2-0.4c-0.8,0.3-1.7,0.6-2.6,0.1c-0.2-0.1-0.5-0.4-0.4-0.5
			C144.5,96.2,144.8,95.8,145,95.8z M144.9,105.2v1.4c-0.1,0-0.1,0-0.2,0v-1.6c0,0,0.1,0,0.1,0C144.8,105,144.8,105.1,144.9,105.2z
			 M144.2,99c-0.1,0.8-0.4,0.9-1.2,0.5C143.5,98.7,143.7,98.6,144.2,99z M139.5,96.4c0.1,0,0.4,0.3,0.6,0.4
			c-0.1,0.2-0.3,0.5-0.4,0.5c-0.3,0-0.6-0.1-0.9-0.2C139,96.7,139.2,96.5,139.5,96.4z M138.1,115.1
			C138.1,115.2,138.1,115.2,138.1,115.1C138,115.2,138,115.2,138.1,115.1C138,115.2,138,115.1,138.1,115.1z M137.5,105.1
			c-0.1,0-0.1,0-0.2,0c0-0.2,0-0.4-0.1-0.6c0-0.4,0-0.7,0.1-1.1c0.1,0,0.1,0,0.2,0V105.1z M136,97.4c0-0.4,0.1-0.7,0.1-1
			c0.5-0.1,1-0.2,1.4-0.2c0.1,0,0.2,0.3,0.3,0.4C137.4,97.4,136.7,97.1,136,97.4z M135.1,118.1c-0.2,0.4-0.4,0.8-0.7,1.1
			c-0.1,0-0.2,0-0.3,0c-0.2-0.4-0.3-0.9-0.5-1.4h1.7C135.2,117.9,135.2,118,135.1,118.1z M136.3,120.6c-0.1,0-0.1-0.1-0.2-0.1
			c-0.2-0.3-0.4-0.4-0.7-0.6c0-0.1,0-0.1,0.1-0.2c0.3,0,0.6-0.1,1.1-0.1C136.4,120,136.3,120.3,136.3,120.6z M135.8,118.1
			c-0.1-0.8,0.1-1,1-0.9c0,0.4,0.1,0.6,0.2,0.9H135.8z M137,116.7c0-0.1,0-0.1,0-0.2c0.5-0.1,0.9-0.2,1.4-0.3v-0.6
			c-0.2-0.6,0-1.1,0-1.6v-13.7c0-0.1,0-0.1,0-0.1c-0.1,0-0.1-0.1-0.2-0.1c0,0,0.1-0.1,0.1-0.1c0.1-0.1,0-0.2,0.1-0.2
			c0.7-0.8,2.7-1.2,3.7-0.8c0.5,0.2,0.7,0.5,0.5,1c-0.1,0.3-0.1,0.6-0.1,1c0.2,0.2,0.5,0.3,0.7,0.3v8.8c0.1,0.1,0.2,0.1,0.3,0.1
			c0.2-0.6,0.2-1.2,0.3-1.7c0.1-0.7,0.2-1.3,0.2-2c0.1,0,0.1,0,0.2,0v1.8c0.2,1.3,0.5,2.4,0.8,3.6c0.1,0.6,0.1,1.3,0.2,2
			c0.5-0.5,0.5-0.6,0.5-2.9c0-1,0-1.9,0-2.9c0-1,0-2,0-3c0-1,0-1.9-0.1-2.9c-0.1-0.9-0.3-1.9-0.5-2.8c0.8-0.3,1.2-0.1,1.4,0.6
			c0.2,1.1,0.4,2.1,0.6,3.3c0.3-0.2,0.5-0.4,0.9-0.6c0.1,0.6,0.1,1.4,0.2,2.1c0,0.8,0,1.6,0,2.3c0,0.8,0,1.5,0,2.3
			c0,0.7-0.2,1.5-0.3,2.3c-0.3-0.4-0.5-0.7-0.8-1c-0.1,0-0.1,0-0.2,0c0,0.9,0,1.9,0,2.8c0,0.1,0.1,0.2,0.2,0.3
			c0.9,0.4,1,0.5,0.8,1.7c-0.8,0-1.6,0-2.5,0c-1.1-0.1-1.7-0.7-1.7-1.8c0-0.9,0-1.8-0.1-2.8c-0.2-0.2-0.3-0.3-0.5-0.3
			c-0.1-0.1-0.1-0.1-0.2-0.1c0,0-0.1,0-0.1,0.1c-0.1-0.2-0.2-0.5-0.2-0.7c0-2.2,0-4.4,0-6.5c0-0.3,0-0.4-0.3-0.6
			c-0.3-0.2-0.5-0.8-0.7-1.2c0.3-0.1,0.5-0.2,0.7-0.3c-0.6,0.1-1-0.4-1.4-0.7c-0.3-0.2-0.5-0.5-0.8-0.7c-0.1-0.1-0.3,0-0.5,0.1
			c-0.1,0.2-0.2,0.4-0.2,0.6c0.2,2.7,0,5.4,0,8.1c0,2.1,0,4.3,0,6.5c0,0,0,0,0,0c0.2,0,0.4,0,0.6,0.1c0-0.1-0.1-0.2-0.1-0.2
			c0-1.8,0.1-3.7,0.1-5.5c0-1.8,0-3.5,0-5.3c0-0.4,0.1-0.8,0.2-1.2c0-0.1,0.2-0.3,0.4-0.3c0.1,0,0.3,0.2,0.3,0.3
			c0.3,0.6,0.6,1.2,0.6,1.9c0,1,0.1,2.1,0.2,3.1c0.1,1,0.3,2.9,0.4,3.3c-0.1,0.9-0.1,1.7-0.1,2.8c0.7-0.8,0-2,1-2.6
			c0.1,0.7,0.4,1.3,0.1,2.1c-0.1,0.3,0.1,0.7,0.1,1.1c0,0.7-0.2,1-1,1c-0.7,0-1.5-0.2-2.2-0.3c0,0,0,0,0,0c-0.2,0-0.4,0.1-0.7,0
			v-0.1c-0.1,0.1-0.1,0.1-0.1,0.2c-0.1,0.6-0.1,1-0.2,1.5c0.1,0.2,0.2,0.2,0.3,0.3c1.5-0.9,3.1-0.7,4.8-0.6
			c-0.1,0.3-0.1,0.6-0.3,0.6c-1.2,0.6-2.2,1.5-3.6,1.4c-0.3,0-0.6-0.1-0.8-0.2c-0.5-0.2-0.5-0.6-0.1-0.9c0-0.1-0.1-0.2-0.1-0.2
			C138.4,117.2,137.7,117.2,137,116.7z M141.3,121.3c0,0.4-0.4,0.8-0.6,1.1c-1.3-1-1.2-1.5-0.3-2.1
			C141,120.4,141.3,120.8,141.3,121.3z M134.1,172.6c0.1-0.4,0.1-0.6,0.2-0.9h1.8c1.6,0,3.2-0.1,4.8-0.2c0-0.3,0.1-0.5,0.1-0.8
			c-0.9-0.3-1.9-0.4-2.8-0.5c-1-0.2-1.1-0.2-1.1-1.2c0.1-1.8,0.3-3.6,0.4-5.4c0-0.3,0-0.7,0-1c-0.1-1.7-0.3-3.4-0.3-5.2
			c0-1.3,0.1-2.6,0.1-3.9c0.1-4.4,0.3-8.7,0.3-13.1c0.1-5,0.1-10,0.1-15c0-0.6,0.3-1,0.8-1.1c0.6-0.2,1.2-0.3,1.8-0.5
			c0.2-0.1,0.4-0.2,0.6-0.4c1.1,0,2.2,0,3.2,0c0.6-0.4,1.1,0.1,1.8,0c-0.2,0.1-0.3,0.1-0.3,0.1c0.3,0.1,0.7,0.2,0.8,0.5
			c0.2,0.3,0,0.8,0,1.2c0.3,0,0.5,0.1,0.8,0.1c-0.3,0.1-0.5,0.1-0.6,0.2c0,0,0,0.1,0,0.1h0.9v-1.5h1.7c0,1,0,2,0,3
			c0,0.2-0.6,0.4-0.9,0.4c-1.1,0-1.2,0.1-0.9,1.2c0,0.1,0.1,0.2,0.2,0.4c0.2-0.2,0.4-0.3,0.6-0.4c0.2-0.1,0.4-0.2,0.6-0.2
			c0.1,0,0.3,0.3,0.3,0.4c0,0.7,0.4,1.1,0.7,1.7c0.3,0.6,0.3,1.5,0.3,2.2c0,0.1-0.4,0.3-0.7,0.3c-0.4,0.1-0.8,0-1.2,0.1
			c-0.2,0-0.3,0.2-0.4,0.4c0.1,0.1,0.3,0.2,0.4,0.3c0.3-0.1,0.5-0.1,0.9-0.2c-0.2,0.5-0.4,0.8-0.6,1.2c0,0.7-0.1,1-0.8,1.1
			c-0.7,0.1-1.4,0.4-2.2,0c-0.3,0.3-0.3,0.6,0,0.9c0.6,0.6,0.5,1-0.1,1.6c-0.1,0.1,0,0.7,0.1,1c0.1,0.1,0.4,0.2,0.6,0.2
			c0.9,0.1,1.2,0.6,1.1,1.7c-0.6-0.1-1.2-0.1-1.8-0.2c-0.2,0-0.4,0.2-0.5,0.4c1,0.1,2,0.1,2.7,1c0.2-0.2,0.2-0.4,0.3-0.6
			c0.1-0.2,0.3-0.4,0.5-0.6c0.6-0.3,0.8,0.4,1.2,0.5c0.1,0,0.1,0.4,0,0.6c-0.2,1-0.5,2-0.7,3c0,0-0.1,0.1-0.1,0.1
			c0.2,0.4,0,0.5-0.3,0.7c0.2,0.1,0.5,0.1,0.7,0.2c0.2,0.1,0.5,0.4,0.4,0.5c-0.1,0.2-0.3,0.5-0.6,0.6c-0.4,0.1-0.8,0.1-1.1,0
			c-0.3,0-0.5-0.2-0.8-0.4c-0.3-0.1-0.5-0.2-0.8-0.3c-0.3,0.3-0.3,0.7-0.8,0.8c-0.1,0-0.1,0.7-0.2,1.2c1.1-0.1,2-0.1,2.9-0.2
			c0.8,0,1.3,0.4,1.2,1.2c0,0.2-0.3,0.5-0.6,0.5c-0.7,0.1-1.4,0.1-2.1,0.1c-0.4,0-0.8,0-1.3,0v0.8c0.9-0.1,1.9,0.4,2.8-0.5
			c0.2-0.2,0.6-0.1,0.8-0.2c0.2,0.6,0.7,1.2,0.2,1.6c-0.3,0.2-0.9,0-1.4-0.1c-0.7-0.2-2.1,0.2-2.6,1c0.7,0,1.3,0.3,2,0
			c0.9-0.3,1.7-0.1,2.5,0.4c-0.5,0.3-1,0.6-1.5,0.9c-0.3,0.1-0.6,0.1-0.9,0c-1.2-0.3-2.3,0.1-3.4,0.5c0.3,0.2,0.6,0.4,1,0.4
			c0.6,0,1.3-0.1,2-0.2v1.3h-1.6c-0.1,0.5,0,0.7,0.5,0.7c0.6,0,1.3,0,1.9,0c0,0.3,0.1,0.6,0.1,0.9c-1.1,0.2-2.2,0.3-3.2,0.5
			c-0.1,0-0.1,0.1-0.1,0.1c1.2,0.1,2.4,0.2,3.6,0.3v1.2h-3.2c0.1,0.3,0.2,0.5,0.3,0.8c0.4,0,0.8,0,1.1-0.1c0.5-0.1,0.8-0.1,1.2-0.2
			c0.5,0.1,1,0,1.4,0c0.1,0,0.4,0.2,0.4,0.4c0,0.3,0,0.7,0,1.2c-0.1-0.3-0.2-0.4-0.2-0.5c-0.4-0.1-0.8-0.1-1.2-0.1
			c-0.3,0-0.4,0-0.6,0c-0.3,0.2-0.1,1-0.9,0.6c-0.4-0.1-0.7-0.2-1.1-0.2c-0.2,0.9-1,0.3-1.4,0.7c-0.1,0.4,0,0.5,0.5,0.5
			c0.7,0,1.3,0,2.1,0c-0.1,0.6-0.2,1.2-0.3,1.8c0.3,0.1,0.5,0.1,0.7,0.2c-0.6,0.3-0.9,0.8-0.7,1.4c0.1,0.2,0.4,0.3,0.6,0.4
			c0.4,0.1,0.7,0.2,0.8-0.3c0.2-0.8,0.5-0.9,1.2-0.5c0.1,0.1,0.2,0.1,0.4,0.2c-0.5,0.9-1.4,0.7-2.2,0.8c-0.7,0.1-1.4,0.2-2,0.3
			c-0.1,0.7-0.2,1.5-0.3,2.2c-0.1,0.5-0.6,1-1.1,0.9c-1,0-2,0-3,0c-0.1,0.3,0,0.6,0,1.1c2,0,4.1-0.1,6.1-0.1c0.4,0,0.8,0.1,1.2,0.2
			c0,0.1,0,0.2,0.1,0.2c-0.6,0.5-1.1,0.9-1.8,1.3c-0.7,0.5-1.3,0.1-1.4-0.7c0-0.1-0.2-0.4-0.2-0.4c-0.3,0-0.5,0-0.8,0.1
			c-0.2,0.1-0.2,0.3-0.4,0.5c-0.3,0.5-0.8,0.7-1.4,0.4c-0.4-0.2-0.8-0.3-1.2-0.4c-0.5-0.1-0.9,0-0.8,0.6c0.6,0.2,1.4,0,1.6,0.9
			c-0.8,0.6-1.5,0.5-1.6-0.4c-0.8-0.1-1.4-0.3-1.9-1c-0.1-0.1-0.3-0.2-0.5-0.2c-0.8,0-1.6-0.1-2.4-0.1
			C135.2,172.6,134.7,172.6,134.1,172.6z M148.9,137.6c-0.7,0.4-2.1,0.1-2.6-0.7c0.4-0.1,0.8-0.2,1.2-0.3c0.3-0.1,0.6-0.2,0.8-0.3
			c0.4-0.2,0.7-0.3,0.8,0.1C149.3,136.8,149.4,137.3,148.9,137.6z M150,156.2h-1.2v-1h0.7C149.7,155.5,149.8,155.8,150,156.2z
			 M139.3,177.5c-0.7,0.2-1.4,0.3-2.1,0.4c-0.4,0.1-0.6-0.2-0.5-0.6c0.1-0.8,0.4-1.5,1.4-1.7c-0.1-0.2-0.2-0.4-0.3-0.5
			c-0.4-0.3-1-0.5-0.5-1c0.2-0.2,0.8,0,1.3,0.1c0.3,0,0.5,0.2,0.7,0.2c0.6,0.1,1.2,0.1,1.2,0.9c-0.6,0.1-1.2,0.3-1.8,0.4
			C138.9,176.4,139.1,176.9,139.3,177.5z M134.6,201.4c0.2-0.1,0.4-0.8-0.2-1.2c-0.1-0.1-0.1-0.5-0.1-0.8c0.1-0.7,0.2-1.4,0.4-2.1
			c0,0,0-0.1,0-0.1c0.6,0,1.2,0.1,1.7,0.2c0.3,0,0.7,0,1.1,0c1-0.1,1.9-0.1,2.8-0.2c0.2,0,0.4-0.1,0.6-0.2h-2.5v-0.1
			c0.8-0.1,1.6-0.1,2.4-0.2c-0.2-0.2-0.4-0.4-0.7-0.5c-1.7-0.3-3.4,0.1-5.1,0.3c-0.1,0-0.2,0.1-0.3,0.2c0-0.9-0.1-1.7-0.1-2.4
			c0-0.2,0-0.3,0.1-0.4c0-0.8,0-1.6-0.1-2.4c0-0.2,0-0.4,0-0.5c0.6-0.6,0.5-1.3,0.4-2.1c-0.1-0.6,0.1-1.3,0.1-1.9
			c0-0.5-0.2-1-0.2-1.5c0-0.3,0.2-0.5,0.2-0.8c0.1-0.8,0.1-1.6,0.1-2.3c0-0.3,0.1-0.5,0.5-0.6c0.4-0.1,0.7-0.3,1-0.5
			c0.6-0.3,1.2-0.2,1.6,0.4c0.2,0.4,0.5,0.4,0.8,0.1c0.3-0.3,0.7-0.6,0.3-1c-0.2-0.2-0.6-0.5-0.8-0.4c-0.9,0.1-1.8,0.2-2.7,0.4
			c-0.3-1.7,0.2-2.5,1.4-2.5c0.3,0.3,0.5,0.7,0.7,0.8c0.5,0.2,0.9,0,1.2-0.5c0.2-0.4,0.6-0.4,1-0.4c0.7,0.1,1.4,0.3,1.9-0.5
			c-0.7,0.1-1.4,0.2-2,0.3c-0.2,0-0.5-0.1-0.5-0.3c-0.1-0.2-0.1-0.6,0-0.7c0.4-0.4,0.8-0.8,1.3-1c0.2-0.1,0.7,0.1,1,0.3
			c0.3,0.3,0.6,0.7,0.2,1.2c0.2-0.1,0.4-0.3,0.6-0.6c0.5-0.8,1-1.6,1.5-2.4c0.1-0.2,0.5-0.3,0.6-0.2c0.2,0.1,0.3,0.4,0.3,0.6
			c-0.1,0.6-0.2,1.1,0.3,1.5c0,0,0.1,0.1,0.2,0.1c0.9-0.5,1-1.3,1.1-2.2c0.2,0.2,0.4,0.4,0.5,0.5c0,0.3-0.1,0.6,0,0.9
			c0.4,1.3,0,1.5-1.2,1.4c-0.1,1,0,1.1,1.4,1.3v1.5c0,0.4-0.1,0.8,0,1c0.6,0.8,0.2,1.7,0.2,2.6c0,0.5,0.2,1,0.3,1.5
			c0,0.1,0,0.3,0,0.4c-0.1,0-0.2,0-0.3,0c-0.7-0.1-0.9-0.1-1.5,0.5c0.2,0.2,0.3,0.5,0.5,0.6c1.1,0.9,1.5,2,1.2,3.3
			c-0.3,1.6,0.1,3.2,0.2,4.8c0,0.4,0.1,0.8-0.1,1.1c-0.6,0.9-0.4,1.9-0.4,2.8c0,0.5,0,0.9-0.7,1c-0.4,0.1-0.6,0.6-0.9,0.8
			c0.3,0.5,0.7,0.8,0.9,1.3c0.2,0.4,0.3,1,0.3,1.4c-0.1,0.4-0.4,0.9-0.4,1.3c0,1.4-0.1,2.8-0.6,4.1c-0.2,0.5,0.2,0.5,0.5,0.5
			c0.6,0.1,1.3,0.1,1.9,0.3c-0.2,0-0.4,0-0.6,0c0,0.7-0.4,1.1-1.2,1.1c-0.1,0-0.4,0.2-0.4,0.3c-0.2,0.7-0.4,1.4-0.5,2.1
			c0.4-0.1,0.7-0.1,1-0.2c0.1,0,0.2-0.1,0.3-0.3c0.2-0.3,0.3-0.6,0.5-0.9c0.2-0.5,0.5-0.5,0.9-0.2c-0.1,0.2-0.3,0.4-0.3,0.7
			c-0.1,0.4-0.3,0.8-0.2,1.1c0.1,1.1,0,1.2-1.1,1.2c-2.7-0.1-5.4-0.2-8.1-0.3c-0.2,0-0.3,0-0.5,0c-0.9-0.1-1-0.2-0.9-1.1
			c0.1-2.8,0.2-5.5,0.4-8.3c0-0.5,0-0.9,0-1.5c-0.4,0-0.7-0.1-1.3-0.1c0.1,0.6,0.2,1.2,0.3,1.7c0,0.2-0.2,0.4-0.2,0.7
			c0,1.3,0.2,2.5,0.2,3.8c-0.1,1.3-0.3,2.6-0.5,3.9c-0.2,0.8-0.4,0.9-1.7,0.7c-0.1-2-0.3-4-0.3-6.1c0-1.8,0-3.6,0.1-5.5
			C134.3,202.1,134.1,201.7,134.6,201.4z M147.9,210.9C147.9,210.9,147.9,210.9,147.9,210.9C147.9,210.9,147.9,210.9,147.9,210.9z
			 M141.3,219.6c-0.6,0-1.1,0-1.4-0.6c0.3-0.5,0.7-0.8,1.3-0.6c0.2,0.1,0.5,0.3,0.5,0.5C141.7,219.1,141.5,219.4,141.3,219.6z
			 M153.4,217.8c-0.3,0.5-1.6,0.4-2-0.1c-0.5-0.6-1.1-0.7-1.7-0.2c-0.7,0.6-1.6,0.7-2.3,0.4c-0.8-0.3-1.6-0.4-2.3-0.4
			c-2-0.1-3.9-0.2-5.9-0.1c-1.1,0.1-2.3-0.2-3.5,0.1c-1.2,0.3-2.4,0.4-3.6,0.6c0,0-0.1,0-0.2,0c0-0.3-0.1-0.6,0-0.9
			c0.1-0.3,0.4-0.6,0.6-0.6c1.9,0.1,3.8-0.2,5.6-0.7c2.1-0.6,4.2-0.4,6.3-0.2c0.4,0,0.8,0,1.2,0c0-0.1,0-0.2-0.2-0.4
			c0.6,0.1,1.2,0.1,1.8,0.2c0,0.1,0,0.3,0,0.4c1.1,0.1,2.3,0.1,3.4,0c0.5,0,1,0,1.1,0.5c0.7-0.1,1.4-0.3,2.1-0.4
			c0,0.1,0.1,0.1,0.1,0.2C153.8,216.7,153.7,217.3,153.4,217.8z M154,214.1c-0.3,0.3-0.9,0.3-1.5,0.4c0.1-0.8,0.2-1.3,0.3-2h1.2
			c0.2,0.1,0.3,0.2,0.4,0.4c0.1-0.2,0.1-0.3,0.1-0.4c0.1,0,0.1,0.1,0.1,0.1C154.4,213.1,154.4,213.8,154,214.1z M154.5,212.3
			c-0.7,0-1.4-0.1-2.1-0.2c-0.6-0.1-0.4-0.7-0.4-1.1c0.7-0.1,1.4-0.1,2,0c0.3,0,0.7,0.4,1,0.6c0.1,0.1,0,0.4,0,0.6
			C154.8,212.2,154.6,212.3,154.5,212.3z M158.8,218.6c-1.3-0.2-2.4-0.3-3.5-0.4c-0.1,0-0.3-0.3-0.4-0.5c-0.1-0.4,0-0.8,0.5-1
			c0.1,0,0.1-0.1,0.1-0.1c0.1-0.3,0.1-0.6,0.2-0.6c0.3-0.1,0.6-0.1,0.9,0c0.2,0,0.4,0.2,0.6,0.3c0.3,0,0.4,0,0.6,0
			c0.4-0.2,0.6-0.4,0.9-0.5c0,0,0.1,0.1,0.2,0.2V218.6z"/>
		<g>
			<path class="st12" d="M144.6,86.6c-0.5,0.2-1,0.1-1.1-0.5c-0.3,0-0.5,0.1-0.8,0.1c0,0,0-0.1,0-0.1c0.5-0.1,0.9-0.2,1.4-0.3
				C144.7,85.8,144.8,86,144.6,86.6z"/>
			<path class="st12" d="M144.5,136.1c-0.3,0-0.6,0-1.1,0c0.1-1.5,0.2-3,0.3-4.5c0-0.2,0.3-0.3,0.4-0.5c0.1,0.2,0.3,0.4,0.3,0.6
				c0,0.3,0,0.6-0.1,0.9c-0.3,0.8-0.2,1.6,0.5,2.1c0.5,0.4,0.5,0.9,0.3,1.5C144.9,136.1,144.7,136.1,144.5,136.1z"/>
			<path class="st12" d="M140.7,137.9c0.1-0.3,0.2-0.6,0.3-0.9c0.1-0.5,0.2-1,0.4-1.5c-0.5,0-0.9-0.1-1.4-0.1c0-0.4,0-0.7,0-1.1
				c0.7-0.3,1.3,0.4,1.9,0.5c0,0,0,0.5-0.1,0.7c-0.1,0.2-0.2,0.3-0.4,0.4c0.2,0,0.4,0.1,0.6,0.1c0,0.6-0.1,1.2-0.1,1.9
				c-0.3,0-0.6,0.1-0.9,0.1C140.7,137.9,140.7,137.9,140.7,137.9z"/>
			<path class="st12" d="M140.5,128.8c0-1.3,0-2.6,0-4c0.2,0.1,0.3,0.2,0.4,0.3c0.2,0.5,0.3,1,0.9,1.3c0.1,0,0.1,0.3,0.1,0.4
				c-0.2,0.6-0.5,1.2-0.8,1.8C141,128.8,140.7,128.8,140.5,128.8z"/>
			<path class="st12" d="M140.5,155.4c-0.1,0.2-0.3,0.5-0.4,0.7c0,0.7,0.1,1.4,0.1,2.1c-0.9,0.2-1,0.1-1-0.8c0-0.5-0.2-1-0.2-1.5
				c0-0.1,0.2-0.3,0.4-0.4c0.3-0.1,0.4-0.2,0.6-0.3c0,0,0,0,0.1,0C140.2,155.3,140.3,155.4,140.5,155.4z"/>
			<path class="st12" d="M143.6,144.3c0-0.5,0-1,0-1.5c-0.1-0.6,0.2-0.8,0.8-0.9c0,0.9,0,1.8,0,2.8
				C144.1,144.6,143.8,144.5,143.6,144.3z"/>
			<path class="st12" d="M143.7,138.3c-0.2,0-0.4,0.1-0.5,0.1c0,0.9,0,1.7,0,2.6c-0.3,0.1-0.6,0.2-1,0.3c0.2-0.9,0.5-1.7,0.7-2.6
				c0.1-0.3,0.1-0.6,0.3-0.8C143.3,138.2,143.5,138.2,143.7,138.3z"/>
			<path class="st12" d="M142.3,150.1c0,0.8,0,1.5,0,2.2c-0.3,0-0.5,0-0.8,0c0-0.8,0-1.6,0-2.5C141.8,149.9,142,149.9,142.3,150.1z"
				/>
			<path class="st12" d="M147,131c0.5,0,0.9,0,1.4,0.1c0.2,0,0.4,0.2,0.5,0.4c0,0.1-0.1,0.2-0.1,0.3c-0.4,0-0.7,0-1.1,0
				c-0.3,0-0.7,0-0.8,0.4c0,0.1-0.4,0.2-0.8,0.3c0.1-0.5,0.1-0.9,0.3-1.3C146.6,131.1,146.8,131.1,147,131z"/>
			<path class="st12" d="M143.7,153.7c0-0.9,0-1.8,0.1-2.7c0.2,0,0.4,0,0.6,0c0,0.8,0,1.5,0,2.3
				C144.4,153.7,144.1,153.7,143.7,153.7z"/>
			<path class="st12" d="M142.7,130.1c0,0.6,0,1.1-0.1,1.6c0,0.1-0.3,0.3-0.4,0.4c-0.1-0.2-0.4-0.3-0.4-0.5c0-0.7,0.1-1.3,0.2-2
				C142.5,129.4,142.8,129.5,142.7,130.1z"/>
			<path class="st12" d="M142.4,165.7c0.1-0.1,0.1-0.2,0.2-0.3c0.2,1.1,0.3,2.1,0.5,3.2c-0.2,0-0.5,0-0.8,0
				C142.4,167.6,142.4,166.7,142.4,165.7z"/>
			<path class="st12" d="M143.2,163.3c-0.1,0.6-0.1,1.1-0.2,1.7c-0.6-1.9-0.6-2.9,0.2-3C143.2,162.4,143.2,162.8,143.2,163.3z"/>
			<path class="st12" d="M144.1,127.2c-0.6-0.7-0.2-1.4-0.2-2.1c0-0.1,0.3-0.2,0.4-0.2c0.1,0,0.4,0.2,0.4,0.3
				C144.5,125.9,144.3,126.5,144.1,127.2z"/>
			<path class="st12" d="M146.9,131c-0.2,0.1-0.3,0.1-0.6,0.2c-0.1-0.6-0.1-1.1-0.1-1.8c0.4,0,0.7,0.1,1,0.1
				C147.2,130,147.1,130.4,146.9,131z"/>
			<path class="st12" d="M139.9,140.4c0.3,0.3,0.7,0.6,1,0.9c-0.7,0.2-1.3,0.7-1.8,0c0.2-0.3,0.4-0.6,0.7-0.9
				C139.9,140.4,139.9,140.4,139.9,140.4z"/>
			<path class="st12" d="M145.5,164.9c-0.5,0.1-0.7-0.1-0.6-0.6c0.5,0,1,0,1.6,0c0,0.2,0,0.4,0,0.6
				C146.1,164.9,145.8,164.9,145.5,164.9z"/>
			<path class="st12" d="M141.6,148c0.4,0,0.7,0.1,1.1,0.1c0,0,0,0,0,0.1c-0.9,0-1.7,0-2.6,0c-0.1,0-0.3-0.1-0.4-0.2
				c0.1-0.1,0.3-0.3,0.4-0.3C140.6,147.8,141.1,147.9,141.6,148z"/>
			<path class="st12" d="M141.1,144.6c-0.4,0-0.7,0.1-1.2,0.1c0.1-0.4,0.2-0.6,0.3-0.8c0.2,0.1,0.4,0.2,0.6,0.3
				C141,144.2,141.1,144.4,141.1,144.6z"/>
			<path class="st12" d="M144.2,209.8c0.2,0,0.4-0.1,0.6-0.1c0.1,0.7,0.2,1.4,0.2,2.1c0,0.6-0.6,0.8-1.1,0.9c-0.4,0-0.8-0.1-1.1-0.1
				c-0.2,0-0.4,0.2-0.6,0.3c-0.1,0.1-0.2,0.2-0.3,0.2c-0.6,0-1.3,0.1-2,0.1c0-0.6-0.2-1.1,0.6-1.2c0.1,0,0.2-0.4,0.2-0.6
				c-0.1-1-0.2-1.9-0.3-2.9c0-0.2,0-0.4,0-0.5c0.2-0.3,0.5-0.6,0.7-0.9c0.2,0.2,0.5,0.5,0.7,0.7c0,0.1,0,0.2,0,0.3
				c0.3-0.1,0.6-0.2,0.9-0.4c0.3-0.2,1,0.1,1,0.5c0,0.3-0.1,0.6-0.2,0.9c0,0.1,0,0.1,0,0.1c0,0.1,0,0.1-0.1,0.2c0,0.1,0,0.2,0,0.3
				c0,0.6-0.1,1.2-0.1,1.8c-0.1,0.1-0.2,0.2-0.2,0.2c-0.1-0.1-0.2-0.3-0.2-0.4c-0.1-1,0.6-2.1-0.4-3.1c-0.3,0.1-1-0.4-1,0.5
				c0,0.8,0,1.7,0.1,2.5c0,0.1,0.1,0.4,0.2,0.4c0.7,0.3,1.4,0.6,2.3,0.4c0.1-0.1,0.2-0.2,0.3-0.4c0-0.2,0-0.4,0-0.6
				C144.2,210.6,144.2,210.2,144.2,209.8 M142.7,212.1c-0.1,0-0.1,0-0.2,0c0,0,0,0,0,0.1C142.6,212.2,142.7,212.2,142.7,212.1z"/>
			<path class="st12" d="M141.5,196.4c1-0.1,1.8,0.1,2.8,0.6c-1.2,0.1-1.3,0.1-1.4,1.3c0,0.5,0,1.1,0,1.6c0.3,0.1,0.6,0.2,1,0.3
				c-0.3,0.8-0.8,1.2-1.5,0.9c-0.9-0.4-1.8-0.2-2.6-0.2c-0.5,0-1,0-1.4,0.1c-0.3,0-0.5,0.2-0.7,0.5c-0.4,0.1-1,0.6-1.3-0.1
				c-0.3,0.1-0.6,0.2-1,0.3c0-0.5,0-0.8,0-1.3c2.1,0.1,4.3,0.2,6.5,0.3c0.1-1.1,0.1-2.1,0.2-3.1c0-0.1-0.2-0.3-0.4-0.5
				C141.5,196.8,141.5,196.6,141.5,196.4z"/>
			<path class="st12" d="M139.4,185.9c0.4-0.5,0.8-1,1.3-1.6c0.3,0.7,0.8,1.4,2,1.6c-0.4,0.3-0.7,0.6-1,0.8c0-0.1,0-0.1,0-0.2
				c-0.4,0.1-0.8,0.1-1.1,0.2c-0.1,0.1-0.3,0.4-0.3,0.6c0,0.8,0.1,1.5,0,2.3c0,0.1-0.2,0.3-0.3,0.4c-0.2,0.2-0.4,0.3-0.6,0.5
				c-0.3-0.4-0.3-0.8,0.1-1.2c0.2-0.2,0.3-0.5,0.3-0.8c0-0.4,0-0.8,0-1.2c0-0.2-0.2-0.4-0.3-0.7c-0.1-0.2-0.1-0.4-0.2-0.7
				C139.4,185.9,139.4,185.9,139.4,185.9z"/>
			<path class="st12" d="M143.7,187.2c0.5-0.4,0.8-0.3,0.9,0.2c0.1,0.3,0,0.7,0,1.1c0,0.4,0,0.7-0.1,1.1c-0.1,0.2-0.2,0.6-0.3,0.6
				c-0.2,0.1-0.6,0.1-0.8-0.1c-0.1-0.1,0-0.5,0-0.7C143.4,188.7,143.6,187.9,143.7,187.2z"/>
			<path class="st12" d="M140.2,192.5c0,0.5,0,0.9,0,1.4c-0.3,0-0.6,0-1,0c0.1-1,0.1-2,0.2-3c0.6-0.1,0.9,0.2,0.8,0.7
				C140.2,191.9,140.2,192.2,140.2,192.5z"/>
			<path class="st12" d="M139.3,185.9c0.1,0,0.1,0.1,0,0.1c-0.5,0.1-0.9,0.1-1,0.8c0,0.1-0.7,0.2-1.3,0.3c0.1-0.6,0.1-1,0.3-1.2
				c0.3-0.3,0.8-0.4,1.2-0.1C138.7,185.9,139,185.9,139.3,185.9z"/>
			<path class="st12" d="M137.5,198.5c-0.1,1-0.5,1.3-1.6,1.3c0-0.4,0-0.8,0-1.3c0.2-0.1,0.5-0.2,0.7-0.3c0.1-0.1,0.2-0.2,0.2-0.2
				C137.1,198.2,137.3,198.3,137.5,198.5z"/>
			<path class="st12" d="M137.6,189c0.6,0.6,0.6,1.2,0,1.6c-0.2,0.1-0.5,0.2-0.6,0.1c-0.1,0-0.3-0.4-0.2-0.5
				c0.1-0.4,0.4-0.8,0.6-1.2C137.5,189.1,137.5,189.1,137.6,189z"/>
			<path class="st12" d="M138.8,183.5c-0.2,0.7-0.6,1.2-1.6,0.9c0.1-0.4,0.1-0.9,0.3-1.1c0.3-0.2,0.8-0.2,1.2-0.3
				C138.8,183.1,138.8,183.3,138.8,183.5z"/>
			<path class="st12" d="M140.6,189.7c0.2,0,0.4-0.1,0.6-0.1c0.3,0,0.6,0.2,0.9,0.2c-0.1,0.3-0.2,0.7-0.3,1.1
				C141.3,190.5,141,190.1,140.6,189.7C140.6,189.7,140.6,189.7,140.6,189.7z"/>
			<path class="st12" d="M144.6,180.6c-0.2,0.2-0.5,0.3-0.7,0.4c-0.1,0-0.1-0.1-0.2-0.1c0.1-0.5,0.1-1.1,0.2-1.6c0.1,0,0.2,0,0.3,0
				C144.4,179.6,144.5,180.1,144.6,180.6z"/>
			<path class="st12" d="M145.8,193.5c-0.1,0-0.1,0.1-0.1,0.1c-0.1,0.2-0.1,0.5-0.2,0.7c-0.1,0-0.4-0.1-0.4-0.1c0-0.3,0-0.7,0-1.1
				c0.2,0,0.4,0,0.6,0.1c0.1,0,0.2,0.2,0.3,0.3c0,0,0,0,0,0C146,193.5,145.9,193.5,145.8,193.5z"/>
		</g>
	</g>
</g>
</svg>
